<?xml version="1.0" standalone="no"?>
<!DOCTYPE svg PUBLIC "-//W3C//DTD SVG 20010904//EN"
 "http://www.w3.org/TR/2001/REC-SVG-20010904/DTD/svg10.dtd">
<svg version="1.0" xmlns="http://www.w3.org/2000/svg"
 width="170.000000pt" height="170.000000pt" viewBox="0 0 170.000000 170.000000"
 preserveAspectRatio="xMidYMid meet">
<metadata>
Created by potrace 1.16, written by Peter Selinger 2001-2019
</metadata>
<g transform="translate(0.000000,170.000000) scale(0.100000,-0.100000)"
fill="#000000" stroke="none">
<path d="M0 850 l0 -850 850 0 850 0 0 850 0 850 -850 0 -850 0 0 -850z m1391
558 c7 -13 9 -44 6 -83 l-6 -62 65 -47 c104 -77 114 -103 62 -162 -32 -36 -32
-36 -95 -30 -62 6 -62 6 -78 -23 -24 -48 -18 -69 38 -128 l52 -55 3 -114 c3
-97 1 -115 -12 -120 -35 -13 -46 14 -46 115 l0 97 -41 39 c-52 51 -72 90 -65
127 8 43 46 126 59 131 7 2 38 0 70 -6 48 -9 60 -8 73 5 14 14 10 19 -33 58
-26 23 -59 50 -72 58 -23 15 -25 15 -53 -19 -17 -18 -67 -72 -111 -117 -66
-67 -98 -91 -162 -122 -81 -39 -262 -98 -367 -120 -65 -13 -81 -29 -118 -120
-31 -76 -46 -86 -134 -95 l-76 -7 -60 -65 c-32 -36 -74 -85 -92 -109 -34 -45
-53 -58 -69 -48 -22 13 -5 51 54 122 104 128 130 150 184 157 120 14 115 10
161 111 18 41 18 42 -2 69 -27 37 -35 132 -12 141 24 9 46 -14 46 -50 0 -18 6
-40 13 -51 13 -17 16 -17 88 0 138 33 273 76 349 111 65 30 90 50 192 156 125
129 160 186 139 226 -6 11 -8 28 -5 36 9 23 41 20 55 -6z m-115 -633 c8 -21
-7 -37 -66 -69 -42 -23 -79 -31 -242 -51 -106 -14 -206 -28 -223 -33 -37 -11
-177 -81 -266 -133 -63 -36 -68 -42 -100 -114 -27 -62 -37 -75 -56 -75 -32 0
-30 26 11 115 40 86 60 102 265 205 l125 62 210 27 c185 23 217 29 256 53 51
31 78 35 86 13z"/>
</g>
</svg>
