<?xml version="1.0" standalone="no"?>
<!DOCTYPE svg PUBLIC "-//W3C//DTD SVG 20010904//EN"
 "http://www.w3.org/TR/2001/REC-SVG-20010904/DTD/svg10.dtd">
<svg version="1.0" xmlns="http://www.w3.org/2000/svg"
 width="141.000000pt" height="78.000000pt" viewBox="0 0 141.000000 78.000000"
 preserveAspectRatio="xMidYMid meet">
<metadata>
Created by potrace 1.16, written by Peter Selinger 2001-2019
</metadata>
<g transform="translate(0.000000,78.000000) scale(0.100000,-0.100000)"
fill="#000000" stroke="none">
<path d="M630 300 c0 -17 7 -20 49 -20 28 0 53 -4 56 -10 4 -6 -11 -10 -37
-10 -24 0 -49 -5 -56 -12 -16 -16 -16 -90 0 -106 16 -16 110 -16 126 0 7 7 12
42 12 89 0 89 0 89 -91 89 -52 0 -59 -2 -59 -20z"/>
<path d="M829 282 c-21 -4 -29 -31 -29 -99 0 -46 3 -53 20 -53 16 0 19 8 22
57 2 46 7 59 21 61 15 3 17 -5 17 -57 0 -54 2 -61 20 -61 18 0 20 7 20 60 0
53 2 60 20 60 18 0 20 -7 20 -60 0 -53 2 -60 20 -60 18 0 20 7 20 69 0 43 -5
73 -12 77 -12 7 -130 12 -159 6z"/>
<path d="M1049 283 c-23 -6 -29 -33 -29 -130 0 -76 2 -83 20 -83 16 0 20 7 20
30 0 26 3 30 29 30 56 0 61 7 61 76 0 60 -2 65 -26 74 -26 10 -46 11 -75 3z"/>
</g>
</svg>
