<?xml version="1.0" standalone="no"?>
<!DOCTYPE svg PUBLIC "-//W3C//DTD SVG 20010904//EN"
 "http://www.w3.org/TR/2001/REC-SVG-20010904/DTD/svg10.dtd">
<svg version="1.0" xmlns="http://www.w3.org/2000/svg"
 width="225.000000pt" height="225.000000pt" viewBox="0 0 225.000000 225.000000"
 preserveAspectRatio="xMidYMid meet">
<metadata>
Created by potrace 1.16, written by Peter Selinger 2001-2019
</metadata>
<g transform="translate(0.000000,225.000000) scale(0.100000,-0.100000)"
fill="#000000" stroke="none">
<path d="M429 1883 c-25 -6 -43 -48 -36 -82 4 -17 3 -30 -1 -30 -24 4 -44 -4
-69 -27 -15 -14 -22 -22 -14 -19 10 6 12 -1 7 -36 l-6 -44 14 43 c15 46 33 72
48 72 6 0 7 -11 4 -26 -4 -16 -3 -23 3 -20 6 4 15 -2 20 -13 9 -16 5 -24 -24
-50 -37 -32 -50 -37 -59 -22 -10 15 -46 0 -46 -20 0 -10 5 -30 12 -44 12 -28
21 -29 131 -18 55 5 67 9 67 23 0 10 -11 25 -25 34 -32 21 -33 59 -1 118 23
44 24 45 4 40 -15 -4 -19 -1 -16 9 3 8 11 13 17 11 7 -1 5 8 -5 23 -9 14 -14
29 -10 33 4 3 11 0 16 -8 7 -11 10 -8 10 13 0 15 0 30 1 35 0 9 -20 11 -42 5z"/>
<path d="M1773 1739 c9 -27 -44 -67 -86 -66 -22 1 -33 5 -30 13 2 6 -3 14 -12
18 -9 3 -15 1 -14 -7 4 -33 -1 -41 -14 -23 -13 18 -16 16 -51 -19 -49 -48 -37
-57 66 -52 64 4 81 2 98 -13 20 -18 28 -46 10 -35 -6 4 -17 2 -25 -5 -7 -6
-21 -10 -31 -8 -11 2 -23 -6 -29 -19 -11 -22 -12 -22 -45 -5 -18 9 -32 21 -31
26 4 15 -22 25 -72 27 -63 4 -76 -10 -46 -50 12 -17 25 -31 28 -32 3 -1 25 -2
47 -3 42 -2 117 -43 108 -58 -3 -4 -23 -8 -44 -8 -50 0 -60 -16 -16 -24 36 -7
46 -21 46 -66 0 -31 -24 -83 -33 -73 -4 3 -7 1 -7 -5 0 -7 -5 -12 -10 -12 -6
0 -8 11 -4 28 7 25 6 26 -11 12 -16 -13 -19 -13 -33 8 -8 12 -24 22 -36 22
-35 0 -141 38 -138 49 1 6 -2 11 -7 11 -5 0 -11 -13 -14 -30 -6 -27 -8 -29
-36 -19 -24 9 -38 6 -80 -16 -42 -21 -51 -23 -51 -10 0 9 4 14 9 10 5 -3 12
-1 15 4 3 5 0 11 -8 14 -8 3 -17 20 -21 38 -8 35 -26 69 -36 69 -3 0 -4 -21
-3 -46 3 -50 -13 -78 -39 -68 -8 3 -18 1 -22 -5 -12 -20 -33 -11 -54 22 l-21
32 0 -28 c0 -15 7 -30 15 -33 8 -3 17 -14 20 -25 4 -11 10 -17 15 -14 4 3 11
-3 14 -12 4 -10 4 -14 0 -10 -13 13 -35 -14 -24 -28 6 -7 12 -44 14 -82 2 -37
6 -75 9 -83 4 -8 8 -26 10 -40 3 -15 5 -7 6 18 1 40 2 42 17 27 20 -19 25 -16
18 12 -4 14 -11 19 -25 16 -15 -4 -19 0 -19 18 0 13 -3 41 -6 62 -6 34 -5 37
12 30 32 -11 46 -43 19 -43 -8 0 -15 -7 -15 -16 0 -10 6 -14 15 -10 10 3 15
-1 15 -12 0 -10 5 -23 11 -29 7 -7 14 -30 16 -52 3 -33 0 -42 -18 -51 -23 -13
-292 -16 -311 -4 -7 5 -8 2 -3 -6 5 -8 3 -11 -6 -8 -8 3 -13 11 -12 17 3 13
-13 15 -21 2 -3 -4 3 -16 14 -26 17 -15 30 -17 97 -10 127 12 263 14 263 4 0
-20 -57 -30 -174 -31 -83 -1 -105 -4 -71 -8 45 -5 47 -7 20 -12 -16 -4 15 -4
69 -1 88 5 98 3 93 -11 -4 -10 -1 -16 8 -16 9 0 12 6 9 15 -5 12 6 15 67 16
41 1 78 0 84 -1 5 -1 6 2 2 7 -5 4 -21 9 -35 9 -15 1 -35 2 -44 3 -11 1 -18 9
-18 21 0 19 7 20 191 20 106 -1 194 2 197 5 3 3 -40 5 -96 5 -66 0 -102 4
-102 11 0 6 -9 8 -20 4 -11 -4 -20 -2 -20 4 0 6 0 14 0 19 0 4 11 10 24 13 20
6 23 4 18 -13 -5 -19 -4 -19 26 -4 35 18 72 21 72 6 0 -6 32 -10 77 -10 42 0
74 3 71 6 -3 3 -34 6 -67 6 -37 1 -57 5 -49 9 7 5 20 9 29 9 11 0 17 8 16 23
-1 62 8 137 16 137 6 0 7 -29 4 -72 -4 -40 -4 -67 0 -59 6 15 43 54 43 46 0
-3 -8 -17 -17 -32 -17 -26 -17 -26 5 -14 20 10 25 8 53 -24 100 -114 297 -14
264 134 -14 65 -86 121 -155 121 l-30 0 16 33 c12 25 22 32 43 32 17 0 27 -5
24 -11 -2 -6 3 -17 12 -24 8 -7 15 -9 15 -4 0 5 4 3 9 -5 5 -7 32 -16 60 -19
50 -4 51 -4 51 22 0 15 7 29 15 32 8 4 15 11 15 17 0 5 -8 3 -18 -6 -13 -12
-26 -14 -55 -7 -21 4 -43 13 -50 18 -7 6 -33 10 -59 8 l-46 -2 25 33 c21 27
31 32 61 31 21 0 54 3 75 7 30 6 37 5 37 -8 0 -17 56 -41 65 -27 8 12 3 63 -8
78 -5 6 -22 12 -38 12 -15 0 -31 5 -34 11 -4 6 -13 8 -21 5 -7 -3 -35 14 -61
39 -47 43 -47 44 -28 59 20 15 20 15 -2 16 -51 0 -71 33 -38 60 24 20 65 -6
65 -39 0 -24 1 -24 17 -9 12 12 13 21 6 30 -6 7 -9 23 -8 34 1 17 -4 22 -23
22 -13 0 -29 6 -34 13 -8 11 -9 11 -5 -2z m-463 -475 c109 -65 57 -234 -72
-234 -39 0 -98 33 -98 55 0 12 8 14 40 9 36 -6 40 -4 40 14 0 12 -4 24 -10 27
-5 3 -10 2 -10 -3 0 -5 -6 -9 -14 -9 -22 0 -7 25 17 31 12 2 4 4 -18 3 -34 -2
-40 1 -43 21 -2 12 1 22 7 22 6 0 11 -6 12 -12 0 -10 2 -10 6 0 7 18 30 15 43
-5 6 -10 9 -11 6 -3 -3 8 -9 23 -12 32 -8 22 -27 29 -45 16 -11 -8 -11 -9 3
-4 10 3 19 2 22 -2 2 -4 -6 -9 -20 -10 -32 -2 -30 12 4 36 51 36 98 41 142 16z
m478 -14 c40 -25 72 -75 72 -115 0 -64 -72 -135 -136 -135 -70 0 -143 86 -130
154 12 63 73 115 136 116 14 0 40 -9 58 -20z"/>
<path d="M1850 774 c0 -58 -2 -65 -15 -54 -9 7 -34 13 -56 13 -106 0 -148
-155 -61 -223 29 -24 80 -26 108 -5 25 19 34 19 34 0 0 -10 11 -15 35 -15 l35
0 -4 43 c-3 23 -5 102 -5 175 l-1 132 -35 0 -35 0 0 -66z"/>
<path d="M1061 714 c-30 -25 -31 -25 -31 -5 0 17 -6 21 -30 21 l-30 0 0 -120
0 -120 35 0 35 0 0 68 c0 77 17 112 56 112 21 0 24 5 24 35 0 43 -16 45 -59 9z"/>
<path d="M1192 730 c-41 -9 -46 -15 -38 -35 5 -13 15 -15 49 -10 35 5 47 3 62
-12 18 -17 18 -18 -1 -21 -95 -14 -134 -41 -134 -94 0 -55 77 -88 131 -55 17
10 23 10 26 0 3 -7 18 -13 34 -13 l29 0 0 85 c0 91 -15 140 -47 149 -42 11
-80 14 -111 6z"/>
<path d="M1523 733 c-12 -2 -27 -11 -33 -19 -16 -18 -30 -18 -30 1 0 10 -10
15 -30 15 l-30 0 0 -120 0 -120 35 0 35 0 0 78 c0 64 4 82 18 95 10 10 25 17
33 17 30 0 39 -24 39 -107 l0 -83 35 0 35 0 0 98 c0 89 -2 100 -22 119 -26 24
-53 32 -85 26z"/>
<path d="M2060 733 c-111 -21 -133 -178 -33 -232 60 -31 159 2 184 62 16 38 5
104 -22 133 -19 20 -82 47 -99 43 -3 -1 -16 -4 -30 -6z"/>
</g>
</svg>
